<?xml version="1.0" standalone="no"?>
<!DOCTYPE svg PUBLIC "-//W3C//DTD SVG 20010904//EN"
 "http://www.w3.org/TR/2001/REC-SVG-20010904/DTD/svg10.dtd">
<svg version="1.0" xmlns="http://www.w3.org/2000/svg"
 width="500.000000pt" height="500.000000pt" viewBox="0 0 500.000000 500.000000"
 preserveAspectRatio="xMidYMid meet">
<metadata>
Created by potrace 1.14, written by Peter Selinger 2001-2017
</metadata>
<g transform="translate(0.000000,500.000000) scale(0.100000,-0.100000)"
fill="#000000" stroke="none">
<path d="M1981 4925 c-51 -25 -106 -45 -123 -45 -43 0 -215 -87 -320 -163 -75
-54 -210 -163 -269 -219 -11 -10 -22 -18 -26 -18 -8 0 -124 -118 -169 -171
-41 -48 -122 -155 -162 -215 -23 -34 -47 -68 -54 -75 -86 -91 -156 -289 -173
-490 -24 -287 -30 -342 -41 -430 -2 -19 -12 -64 -22 -100 -10 -35 -19 -99 -21
-141 l-2 -77 36 -7 c20 -3 55 -4 78 -1 126 17 170 27 180 41 7 9 31 16 61 18
38 1 50 6 54 20 5 21 4 20 63 23 29 1 58 10 77 24 33 23 88 28 95 9 2 -7 -9
-28 -24 -45 -28 -32 -28 -34 -14 -74 8 -23 15 -51 15 -62 0 -31 -57 -114 -88
-126 -40 -17 -54 -46 -63 -131 -5 -41 -11 -86 -14 -100 -9 -40 -34 -215 -33
-236 0 -10 -3 -48 -8 -84 -8 -64 -8 -91 -2 -200 1 -30 0 -71 -4 -91 -20 -100
-172 -574 -213 -664 -23 -50 -34 -105 -34 -182 l-1 -43 -140 0 c-122 0 -140
-2 -148 -17 -6 -10 -10 -205 -11 -435 l-2 -418 2055 0 2056 0 0 420 0 420 -22
14 c-16 10 -64 16 -163 20 -77 2 -143 5 -147 5 -3 1 -5 9 -4 18 4 28 -31 165
-60 228 -35 79 -114 320 -114 348 1 42 -13 92 -31 118 -26 37 -4 44 47 17 l38
-20 52 56 c28 31 60 72 70 92 10 19 29 37 40 40 24 6 98 -27 111 -50 4 -7 28
-16 53 -20 37 -5 47 -3 57 11 67 96 73 109 73 158 0 65 37 207 104 407 64 191
160 598 171 728 3 30 7 78 10 106 8 70 8 337 1 399 -3 28 -13 129 -21 225 -18
204 -40 382 -60 495 -17 94 -51 224 -60 233 -8 8 -5 -17 29 -228 14 -85 28
-180 31 -210 3 -30 8 -69 10 -85 24 -179 24 -647 0 -797 -2 -13 -6 -59 -10
-103 -4 -44 -8 -82 -10 -85 -2 -3 -6 -23 -9 -45 -34 -219 -117 -543 -202 -792
-13 -39 -24 -78 -24 -85 0 -8 -14 -43 -31 -76 -23 -48 -36 -62 -52 -62 -37 0
-48 14 -49 65 -1 48 -23 85 -51 85 -7 0 -28 13 -47 30 -18 16 -48 34 -66 40
-19 7 -34 15 -34 19 0 4 -22 20 -49 34 -27 15 -73 51 -103 80 -29 28 -71 61
-92 72 -34 18 -47 34 -78 97 -13 29 -9 43 18 67 23 20 26 28 21 69 -6 55 -38
86 -106 105 -28 8 -46 19 -51 33 -9 22 7 114 19 114 12 0 40 70 50 124 5 26
16 55 25 64 15 15 20 15 66 -1 27 -10 84 -20 127 -24 43 -3 87 -12 98 -19 24
-16 87 -25 103 -15 6 4 23 33 38 66 l28 60 -18 110 c-29 193 -46 257 -135 523
-70 209 -228 500 -358 661 -80 98 -303 304 -408 377 -16 11 -81 46 -143 78
-102 52 -115 56 -126 41 -11 -15 -14 -14 -39 5 -15 12 -47 24 -70 27 -23 3
-49 12 -58 20 -9 7 -45 16 -80 20 -72 6 -109 18 -109 33 0 7 -117 10 -348 10
l-348 0 -93 -45z m-260 -3408 c-10 -9 -11 -8 -5 6 3 10 9 15 12 12 3 -3 0 -11
-7 -18z m-628 -672 c44 -12 31 -39 -21 -43 -29 -2 -45 -9 -52 -23 -14 -25 -36
-24 -50 1 -11 20 -40 28 -40 11 0 -27 -31 -39 -93 -36 -36 1 -69 5 -76 9 -10
7 -16 78 -7 87 8 7 310 2 339 -6z"/>
</g>
</svg>
